<svg width="97" height="102" viewBox="0 0 97 102" fill="none" xmlns="http://www.w3.org/2000/svg">
<g id="Polygon 6" filter="url(#filter0_d_1724_269)">
<path d="M40.5 68.3812C43.4144 70.0638 44.8716 70.9052 46.4209 71.2345C47.7916 71.5258 49.2084 71.5258 50.5791 71.2345C52.1284 70.9052 53.5856 70.0638 56.5 68.3812L68.2128 61.6188C71.1272 59.9362 72.5845 59.0948 73.6443 57.9178C74.582 56.8764 75.2903 55.6495 75.7234 54.3167C76.2128 52.8103 76.2128 51.1277 76.2128 47.7624V34.2376C76.2128 30.8723 76.2128 29.1897 75.7234 27.6833C75.2903 26.3505 74.582 25.1236 73.6443 24.0822C72.5845 22.9052 71.1272 22.0638 68.2128 20.3812L56.5 13.6188C53.5856 11.9362 52.1284 11.0948 50.5791 10.7655C49.2084 10.4742 47.7916 10.4742 46.4209 10.7655C44.8716 11.0948 43.4144 11.9362 40.5 13.6188L28.7872 20.3812C25.8728 22.0638 24.4155 22.9052 23.3557 24.0822C22.418 25.1236 21.7097 26.3505 21.2766 27.6833C20.7872 29.1897 20.7872 30.8723 20.7872 34.2376V47.7624C20.7872 51.1277 20.7872 52.8103 21.2766 54.3167C21.7097 55.6495 22.418 56.8764 23.3557 57.9178C24.4155 59.0948 25.8728 59.9362 28.7872 61.6188L40.5 68.3812Z" fill="url(#paint0_linear_1724_269)" shape-rendering="crispEdges"/>
<path d="M40.5 68.3812C43.4144 70.0638 44.8716 70.9052 46.4209 71.2345C47.7916 71.5258 49.2084 71.5258 50.5791 71.2345C52.1284 70.9052 53.5856 70.0638 56.5 68.3812L68.2128 61.6188C71.1272 59.9362 72.5845 59.0948 73.6443 57.9178C74.582 56.8764 75.2903 55.6495 75.7234 54.3167C76.2128 52.8103 76.2128 51.1277 76.2128 47.7624V34.2376C76.2128 30.8723 76.2128 29.1897 75.7234 27.6833C75.2903 26.3505 74.582 25.1236 73.6443 24.0822C72.5845 22.9052 71.1272 22.0638 68.2128 20.3812L56.5 13.6188C53.5856 11.9362 52.1284 11.0948 50.5791 10.7655C49.2084 10.4742 47.7916 10.4742 46.4209 10.7655C44.8716 11.0948 43.4144 11.9362 40.5 13.6188L28.7872 20.3812C25.8728 22.0638 24.4155 22.9052 23.3557 24.0822C22.418 25.1236 21.7097 26.3505 21.2766 27.6833C20.7872 29.1897 20.7872 30.8723 20.7872 34.2376V47.7624C20.7872 51.1277 20.7872 52.8103 21.2766 54.3167C21.7097 55.6495 22.418 56.8764 23.3557 57.9178C24.4155 59.0948 25.8728 59.9362 28.7872 61.6188L40.5 68.3812Z" stroke="url(#paint1_linear_1724_269)" stroke-opacity="0.6" style="mix-blend-mode:overlay" shape-rendering="crispEdges"/>
</g>
<defs>
<filter id="filter0_d_1724_269" x="0.287231" y="0.0469971" width="96.4255" height="101.906" filterUnits="userSpaceOnUse" color-interpolation-filters="sRGB">
<feFlood flood-opacity="0" result="BackgroundImageFix"/>
<feColorMatrix in="SourceAlpha" type="matrix" values="0 0 0 0 0 0 0 0 0 0 0 0 0 0 0 0 0 0 127 0" result="hardAlpha"/>
<feOffset dy="10"/>
<feGaussianBlur stdDeviation="10"/>
<feComposite in2="hardAlpha" operator="out"/>
<feColorMatrix type="matrix" values="0 0 0 0 0.196078 0 0 0 0 0.32549 0 0 0 0 0.54902 0 0 0 0.25 0"/>
<feBlend mode="normal" in2="BackgroundImageFix" result="effect1_dropShadow_1724_269"/>
<feBlend mode="normal" in="SourceGraphic" in2="effect1_dropShadow_1724_269" result="shape"/>
</filter>
<linearGradient id="paint0_linear_1724_269" x1="48.5" y1="82.2754" x2="48.5" y2="9.00001" gradientUnits="userSpaceOnUse">
<stop stop-color="#C5CCDE" stop-opacity="0"/>
<stop offset="1" stop-color="#C5CCDE"/>
</linearGradient>
<linearGradient id="paint1_linear_1724_269" x1="48.5" y1="73" x2="48.5" y2="9" gradientUnits="userSpaceOnUse">
<stop stop-color="white"/>
<stop offset="1" stop-color="white" stop-opacity="0"/>
</linearGradient>
</defs>
</svg>
