<svg width="194" height="31" viewBox="0 0 194 31" fill="none" xmlns="http://www.w3.org/2000/svg">
<path fill-rule="evenodd" clip-rule="evenodd" d="M13.649 30.3752C13.2803 30.2289 12.7026 29.9995 6.3004 24.1414C2.55662 20.7131 0.57753 18.79 0.379621 18.3719C0.222246 18.0705 0.0464717 17.6145 0 16.373C0 15.623 0 13.373 0.0167907 10.3949C0.013415 8.73188 0.0094797 7.46324 0.00627251 6.42933C0.00269356 5.27557 2.12909e-05 4.4141 4.50497e-05 3.62302C7.69012e-05 2.56248 0.47159 2.15037 0.923873 2.15037C1.49999 2.15037 1.69902 2.3176 3.81005 4.30766C4.19884 4.67196 4.5803 5.0303 4.92987 5.35869C5.75167 6.13069 6.39737 6.73727 6.54778 6.86632L6.92711 7.20079L8.11456 6.03016C10.7204 3.43806 13.2107 1.24731 13.8869 0.946296C15.2228 0.327536 16.4927 0.595112 17.8451 1.76574C18.3 2.1501 20.6645 4.34368 23.2985 6.78713L23.9968 7.4349C27.4272 10.629 29.3377 12.4739 29.6372 13.0205C29.9037 13.507 29.9998 14.123 29.9998 14.873L30 29.9287C29.9999 30.3121 29.6891 30.6229 29.3057 30.6229C28.8074 30.6229 28.274 30.4157 27.9068 30.0789L24.4421 26.9007L22.2651 24.8438L19.5108 27.4024C18.01 28.8072 16.5752 30.0781 16.3278 30.2287C15.6351 30.6802 14.4916 30.7567 13.7385 30.4126C13.708 30.3987 13.6792 30.3872 13.649 30.3752ZM17 7.62303L24 14.1231C24.6321 14.6921 25 15.1088 25 15.9592V19.1231C25 19.9516 24.3284 20.6231 23.5 20.6231C22.6716 20.6231 22 19.9516 22 19.1231V16.4953C22 16.0173 21.5624 15.6269 21.1806 15.2864C21.1182 15.2307 21.0573 15.1763 21 15.1231L16 10.6231C15.4235 10.0878 14.5596 9.43274 13.7286 10.2638C13.083 10.9093 13.1868 11.6725 13.7286 12.2481L19.5 17.6231C20.6113 18.8039 20.0885 20.5346 18.942 21.6811L17.0126 23.6105C15.8844 24.7388 14.0704 24.7865 12.8844 23.7191L5.66207 17.219C5.24064 16.8397 5 16.2994 5 15.7324V13.1231C5 12.2947 5.67157 11.6231 6.5 11.6231C7.32843 11.6231 8 12.2947 8 13.1231V15.1871C8 15.4651 8.11578 15.7306 8.31955 15.9199L13.7286 20.9425C14.4382 21.6015 15.5421 21.5811 16.2269 20.8963C16.93 20.1931 17 19.1231 16.2269 18.35L11 13.6231C9.79227 12.4154 10.0506 10.16 11.3097 9.0059L12.9913 7.46441C14.1306 6.42012 15.8513 6.58919 17 7.62303Z" fill="url(#paint0_linear_669_4113)"/>
<path d="M47.0567 23.4327C45.4573 23.4327 44.0128 23.1551 42.7233 22.5999C41.4438 22.0347 40.3891 21.2317 39.5594 20.1906C38.7397 19.1397 38.2199 17.8905 38 16.4429L42.2585 15.8183C42.5584 17.0477 43.1781 17.9946 44.1178 18.6588C45.0575 19.3231 46.1271 19.6553 47.3266 19.6553C47.9964 19.6553 48.6462 19.5512 49.2759 19.3429C49.9057 19.1347 50.4205 18.8274 50.8204 18.4209C51.2302 18.0144 51.4352 17.5137 51.4352 16.9188C51.4352 16.7007 51.4002 16.4925 51.3302 16.2942C51.2702 16.086 51.1653 15.8927 51.0153 15.7142C50.8654 15.5358 50.6504 15.3672 50.3705 15.2086C50.1006 15.05 49.7558 14.9062 49.3359 14.7773L43.7279 13.1414C43.3081 13.0224 42.8183 12.8539 42.2585 12.6358C41.7087 12.4176 41.1739 12.1053 40.654 11.6988C40.1342 11.2924 39.6994 10.757 39.3495 10.0927C39.0096 9.4185 38.8397 8.57081 38.8397 7.54961C38.8397 6.11201 39.2046 4.91731 39.9343 3.96551C40.664 3.01372 41.6387 2.30483 42.8582 1.83885C44.0778 1.37286 45.4273 1.14483 46.9068 1.15474C48.3963 1.17457 49.7258 1.42739 50.8954 1.9132C52.0649 2.39902 53.0446 3.10791 53.8343 4.03987C54.624 4.96192 55.1938 6.09218 55.5437 7.43064L51.1353 8.17423C50.9753 7.48021 50.6804 6.89526 50.2506 6.41936C49.8207 5.94346 49.3059 5.58158 48.7061 5.33372C48.1164 5.08585 47.4966 4.95201 46.8468 4.93218C46.207 4.91235 45.6023 5.00158 45.0325 5.19987C44.4727 5.38825 44.0128 5.66585 43.653 6.03269C43.3031 6.39953 43.1282 6.83577 43.1282 7.34141C43.1282 7.80739 43.2731 8.1891 43.563 8.48654C43.8529 8.77406 44.2178 9.00705 44.6576 9.18551C45.0974 9.36397 45.5473 9.51269 46.0071 9.63167L49.7558 10.6429C50.3156 10.7917 50.9353 10.99 51.6151 11.2378C52.2948 11.4758 52.9446 11.8129 53.5644 12.2491C54.1942 12.6754 54.709 13.2406 55.1088 13.9445C55.5187 14.6484 55.7236 15.5407 55.7236 16.6214C55.7236 17.7715 55.4787 18.7778 54.9889 19.6404C54.509 20.493 53.8593 21.2019 53.0396 21.7671C52.2199 22.3223 51.2902 22.7387 50.2506 23.0163C49.221 23.2939 48.1563 23.4327 47.0567 23.4327Z" fill="white"/>
<path d="M65.0472 23.4327C63.3878 23.4327 61.9233 23.0807 60.6538 22.3768C59.3942 21.663 58.4046 20.6864 57.6849 19.4471C56.9751 18.1978 56.6202 16.7701 56.6202 15.164C56.6202 13.4091 56.9701 11.8823 57.6699 10.5835C58.3696 9.28466 59.3343 8.27833 60.5638 7.56449C61.7934 6.84073 63.2079 6.47885 64.8073 6.47885C66.5067 6.47885 67.9511 6.87543 69.1407 7.66859C70.3303 8.46175 71.21 9.57714 71.7798 11.0147C72.3496 12.4524 72.5495 14.1428 72.3796 16.086H68.346V14.5988C68.346 12.9629 68.0811 11.7881 67.5513 11.0742C67.0315 10.3505 66.1768 9.98859 64.9872 9.98859C63.5977 9.98859 62.5731 10.41 61.9133 11.2527C61.2636 12.0855 60.9387 13.3199 60.9387 14.9558C60.9387 16.4529 61.2636 17.6129 61.9133 18.4358C62.5731 19.2488 63.5377 19.6553 64.8073 19.6553C65.607 19.6553 66.2917 19.4818 66.8615 19.1347C67.4313 18.7877 67.8662 18.2871 68.1661 17.6327L72.2446 18.7927C71.6348 20.26 70.6702 21.4002 69.3506 22.2132C68.0411 23.0262 66.6066 23.4327 65.0472 23.4327ZM59.6791 16.086V13.0819H70.4153V16.086H59.6791Z" fill="white"/>
<path d="M74.2658 22.9865V6.925H77.8645V10.8512L77.4747 10.3455C77.6846 9.7903 77.9645 9.28466 78.3144 8.82859C78.6642 8.37252 79.0941 7.99577 79.6039 7.69833C79.9938 7.46038 80.4186 7.27697 80.8784 7.14808C81.3383 7.00927 81.8131 6.925 82.3029 6.89526C82.7928 6.8556 83.2826 6.86551 83.7724 6.925V10.7024C83.3226 10.5636 82.7978 10.519 82.198 10.5686C81.6082 10.6082 81.0734 10.7421 80.5935 10.9701C80.1137 11.1882 79.7089 11.4807 79.379 11.8476C79.0491 12.2045 78.7992 12.6308 78.6293 13.1265C78.4593 13.6123 78.3743 14.1626 78.3743 14.7773V22.9865H74.2658Z" fill="white"/>
<path d="M92.3596 23.4327C90.7002 23.4327 89.2357 23.0807 87.9662 22.3768C86.7067 21.663 85.717 20.6864 84.9973 19.4471C84.2875 18.1978 83.9327 16.7701 83.9327 15.164C83.9327 13.4091 84.2825 11.8823 84.9823 10.5835C85.682 9.28466 86.6467 8.27833 87.8762 7.56449C89.1058 6.84073 90.5203 6.47885 92.1197 6.47885C93.8191 6.47885 95.2636 6.87543 96.4531 7.66859C97.6427 8.46175 98.5224 9.57714 99.0922 11.0147C99.662 12.4524 99.8619 14.1428 99.692 16.086H95.6584V14.5988C95.6584 12.9629 95.3935 11.7881 94.8637 11.0742C94.3439 10.3505 93.4892 9.98859 92.2996 9.98859C90.9101 9.98859 89.8855 10.41 89.2257 11.2527C88.576 12.0855 88.2511 13.3199 88.2511 14.9558C88.2511 16.4529 88.576 17.6129 89.2257 18.4358C89.8855 19.2488 90.8502 19.6553 92.1197 19.6553C92.9194 19.6553 93.6042 19.4818 94.174 19.1347C94.7438 18.7877 95.1786 18.2871 95.4785 17.6327L99.557 18.7927C98.9472 20.26 97.9826 21.4002 96.6631 22.2132C95.3535 23.0262 93.9191 23.4327 92.3596 23.4327ZM86.9916 16.086V13.0819H97.7277V16.086H86.9916Z" fill="white"/>
<path d="M112.175 22.9865V15.4019C112.175 15.0351 112.155 14.5691 112.115 14.004C112.075 13.4289 111.95 12.8539 111.74 12.2788C111.53 11.7038 111.185 11.2229 110.705 10.8363C110.236 10.4496 109.566 10.2563 108.696 10.2563C108.346 10.2563 107.971 10.3108 107.572 10.4199C107.172 10.5289 106.797 10.7421 106.447 11.0594C106.097 11.3667 105.807 11.8228 105.577 12.4276C105.357 13.0323 105.247 13.8354 105.247 14.8368L102.908 13.7363C102.908 12.4672 103.168 11.2775 103.688 10.1671C104.208 9.05662 104.988 8.15936 106.027 7.47525C107.077 6.79115 108.396 6.4491 109.986 6.4491C111.255 6.4491 112.29 6.66226 113.09 7.08859C113.889 7.51491 114.509 8.05526 114.949 8.70961C115.399 9.36397 115.719 10.0481 115.909 10.7619C116.099 11.4659 116.214 12.1103 116.254 12.6953C116.293 13.2802 116.313 13.7065 116.313 13.9742V22.9865H112.175ZM101.109 22.9865V6.925H104.738V12.2491H105.247V22.9865H101.109Z" fill="white"/>
<path d="M124.98 23.4327C123.49 23.4327 122.186 23.0609 121.066 22.3173C119.946 21.5737 119.072 20.5624 118.442 19.2835C117.822 18.0045 117.512 16.5619 117.512 14.9558C117.512 13.3199 117.827 11.8674 118.457 10.5983C119.097 9.31936 119.991 8.31303 121.141 7.57936C122.291 6.84568 123.64 6.47885 125.19 6.47885C126.729 6.47885 128.024 6.85064 129.073 7.59423C130.123 8.33782 130.918 9.3491 131.457 10.6281C131.997 11.9071 132.267 13.3496 132.267 14.9558C132.267 16.5619 131.992 18.0045 131.442 19.2835C130.903 20.5624 130.093 21.5737 129.013 22.3173C127.934 23.0609 126.589 23.4327 124.98 23.4327ZM125.639 19.8337C126.549 19.8337 127.274 19.6305 127.814 19.224C128.363 18.8175 128.758 18.2474 128.998 17.5137C129.238 16.78 129.358 15.9274 129.358 14.9558C129.358 13.9841 129.238 13.1315 128.998 12.3978C128.758 11.6641 128.373 11.0941 127.844 10.6876C127.324 10.2811 126.639 10.0778 125.789 10.0778C124.88 10.0778 124.13 10.3009 123.54 10.7471C122.96 11.1833 122.531 11.7732 122.251 12.5168C121.971 13.2505 121.831 14.0635 121.831 14.9558C121.831 15.858 121.966 16.6809 122.236 17.4245C122.506 18.1582 122.92 18.7431 123.48 19.1794C124.04 19.6156 124.76 19.8337 125.639 19.8337ZM129.358 22.9865V11.9814H128.848V1.57115H132.957V22.9865H129.358Z" fill="white"/>
<path d="M135.956 4.69423V1.125H140.034V4.69423H135.956ZM135.956 22.9865V6.925H140.034V22.9865H135.956Z" fill="white"/>
<path d="M150.977 23.4327C149.368 23.4327 148.023 23.0609 146.944 22.3173C145.864 21.5737 145.049 20.5624 144.5 19.2835C143.96 18.0045 143.69 16.5619 143.69 14.9558C143.69 13.3496 143.96 11.9071 144.5 10.6281C145.039 9.3491 145.834 8.33782 146.884 7.59423C147.933 6.85064 149.228 6.47885 150.767 6.47885C152.317 6.47885 153.666 6.84568 154.816 7.57936C155.965 8.31303 156.855 9.31936 157.485 10.5983C158.125 11.8674 158.445 13.3199 158.445 14.9558C158.445 16.5619 158.13 18.0045 157.5 19.2835C156.88 20.5624 156.01 21.5737 154.891 22.3173C153.771 23.0609 152.467 23.4327 150.977 23.4327ZM143 30.125V6.925H146.599V17.9301H147.109V30.125H143ZM150.317 19.8337C151.197 19.8337 151.917 19.6156 152.477 19.1794C153.036 18.7431 153.451 18.1582 153.721 17.4245C153.991 16.6809 154.126 15.858 154.126 14.9558C154.126 14.0635 153.986 13.2505 153.706 12.5168C153.426 11.7732 152.992 11.1833 152.402 10.7471C151.822 10.3009 151.077 10.0778 150.168 10.0778C149.318 10.0778 148.628 10.2811 148.098 10.6876C147.578 11.0941 147.199 11.6641 146.959 12.3978C146.719 13.1315 146.599 13.9841 146.599 14.9558C146.599 15.9274 146.719 16.78 146.959 17.5137C147.199 18.2474 147.588 18.8175 148.128 19.224C148.678 19.6305 149.408 19.8337 150.317 19.8337Z" fill="white"/>
<path d="M160.544 4.69423V1.125H164.623V4.69423H160.544ZM160.544 22.9865V6.925H164.623V22.9865H160.544Z" fill="white"/>
<path d="M177.335 22.9865C176.216 23.1947 175.116 23.284 174.037 23.2542C172.967 23.2344 172.007 23.051 171.158 22.704C170.318 22.347 169.678 21.777 169.238 20.9937C168.838 20.26 168.629 19.5165 168.609 18.7629C168.589 17.9995 168.579 17.137 168.579 16.1753V2.46346H172.657V15.9373C172.657 16.5619 172.662 17.1271 172.672 17.6327C172.692 18.1284 172.797 18.525 172.987 18.8224C173.347 19.3876 173.922 19.6949 174.711 19.7445C175.501 19.7941 176.376 19.7544 177.335 19.6255V22.9865ZM165.82 10.0481V6.925H177.335V10.0481H165.82Z" fill="white"/>
<path d="M181.075 30.125L184.194 21.6183L184.254 24.1168L177.206 6.925H181.435L186.173 19.0901H185.213L189.921 6.925H194L184.853 30.125H181.075Z" fill="white"/>
<defs>
<linearGradient id="paint0_linear_669_4113" x1="15" y1="0.623032" x2="15" y2="30.627" gradientUnits="userSpaceOnUse">
<stop stop-color="white"/>
<stop offset="1" stop-color="white" stop-opacity="0.5"/>
</linearGradient>
</defs>
</svg>
